<svg width="12" height="12" viewBox="0 0 12 12" xmlns="http://www.w3.org/2000/svg" shape-rendering="crispEdges">
  <g fill="#1a1a2e">
    <rect x="4" y="1" width="4" height="1" />
    <rect x="3" y="2" width="1" height="1" />
    <rect x="8" y="2" width="1" height="1" />
    <rect x="2" y="3" width="1" height="1" />
    <rect x="9" y="3" width="1" height="1" />
    <rect x="2" y="4" width="1" height="1" />
    <rect x="10" y="4" width="1" height="1" />
    <rect x="1" y="5" width="1" height="1" />
    <rect x="11" y="5" width="1" height="1" />
    <rect x="1" y="6" width="1" height="1" />
    <rect x="11" y="6" width="1" height="1" />
    <rect x="1" y="7" width="1" height="1" />
    <rect x="11" y="7" width="1" height="1" />
    <rect x="2" y="8" width="1" height="1" />
    <rect x="11" y="8" width="1" height="1" />
    <rect x="2" y="9" width="1" height="1" />
    <rect x="10" y="9" width="1" height="1" />
    <rect x="3" y="10" width="1" height="1" />
    <rect x="10" y="10" width="1" height="1" />
    <rect x="4" y="11" width="6" height="1" />
    
    <rect x="8" y="6" width="2" height="1" />
  </g>

  <g fill="#8b7a2a">
    <rect x="4" y="2" width="4" height="1" />
    <rect x="3" y="3" width="6" height="1" />
    <rect x="3" y="4" width="4" height="1" />
    <rect x="2" y="5" width="3" height="1" />
    <rect x="2" y="6" width="2" height="1" />
  </g>

  <g fill="#7a3a3a">
    <rect x="7" y="4" width="3" height="1" />
    <rect x="5" y="5" width="6" height="1" />
    <rect x="4" y="6" width="4" height="1" />
    <rect x="10" y="6" width="1" height="1" />
    <rect x="4" y="7" width="7" height="1" />
    <rect x="5" y="8" width="6" height="1" />
    <rect x="6" y="9" width="4" height="1" />
    <rect x="8" y="10" width="2" height="1" />
  </g>

  <g fill="#5a2a2a">
    <rect x="2" y="7" width="2" height="1" />
    <rect x="3" y="8" width="2" height="1" />
    <rect x="3" y="9" width="3" height="1" />
    <rect x="4" y="10" width="4" height="1" />
  </g>
</svg>
